PathFileType	4	(X/Y/Z)	C:/Users/Carlo/Dropbox/Carlos/SARAH/CongressoMarcha2025/WorkshopOpenSim/C3D/Caso01/Walking 02.c3d.trc
DataRate	CameraRate	NumFrames	NumMarkers	Units	OrigDataRate	OrigDataStartFrame	OrigNumFrames
100.000000	100.000000	4	85	mm	100.000000	182	364
Frame#	Time	PELO			PELA			PELL			PELP			LFEO			LFEA			LFEL			LFEP			LTIO			LTIA			LTIL			LTIP			LFOO			LFOA			LFOL			LFOP			LTOO			LTOA			LTOL			LTOP			RFEO			RFEA			RFEL			RFEP			RTIO			RTIA			RTIL			RTIP			RFOO			RFOA			RFOL			RFOP			RTOO			RTOA			RTOL			RTOP			LASI			RASI			RPSI			LTHI			LKNE			LTIB			LANK			LHEE			LTOE			RTHI			RKNE			RTIB			RANK			RHEE			RTOE			LPSI			LHipAngles			LKneeAngles			LAbsAnkleAngle			LAnkleAngles			RHipAngles			RKneeAngles			RAnkleAngles			RAbsAnkleAngle			LPelvisAngles			RPelvisAngles			LFootProgressAngles			RFootProgressAngles			LHipPower			LKneePower			LAnklePower			RHipPower			RKneePower			RAnklePower			LGroundReactionForce			LNormalisedGRF			LAnkleForce			RAnkleForce			RKneeForce			LKneeForce			RHipForce			LHipForce			LGroundReactionMoment			LAnkleMoment			RAnkleMoment			RKneeMoment			LKneeMoment			RHipMoment			LHipMoment			
		X1	Y1	Z1	X2	Y2	Z2	X3	Y3	Z3	X4	Y4	Z4	X5	Y5	Z5	X6	Y6	Z6	X7	Y7	Z7	X8	Y8	Z8	X9	Y9	Z9	X10	Y10	Z10	X11	Y11	Z11	X12	Y12	Z12	X13	Y13	Z13	X14	Y14	Z14	X15	Y15	Z15	X16	Y16	Z16	X17	Y17	Z17	X18	Y18	Z18	X19	Y19	Z19	X20	Y20	Z20	X21	Y21	Z21	X22	Y22	Z22	X23	Y23	Z23	X24	Y24	Z24	X25	Y25	Z25	X26	Y26	Z26	X27	Y27	Z27	X28	Y28	Z28	X29	Y29	Z29	X30	Y30	Z30	X31	Y31	Z31	X32	Y32	Z32	X33	Y33	Z33	X34	Y34	Z34	X35	Y35	Z35	X36	Y36	Z36	X37	Y37	Z37	X38	Y38	Z38	X39	Y39	Z39	X40	Y40	Z40	X41	Y41	Z41	X42	Y42	Z42	X43	Y43	Z43	X44	Y44	Z44	X45	Y45	Z45	X46	Y46	Z46	X47	Y47	Z47	X48	Y48	Z48	X49	Y49	Z49	X50	Y50	Z50	X51	Y51	Z51	X52	Y52	Z52	X53	Y53	Z53	X54	Y54	Z54	X55	Y55	Z55	X56	Y56	Z56	X57	Y57	Z57	X58	Y58	Z58	X59	Y59	Z59	X60	Y60	Z60	X61	Y61	Z61	X62	Y62	Z62	X63	Y63	Z63	X64	Y64	Z64	X65	Y65	Z65	X66	Y66	Z66	X67	Y67	Z67	X68	Y68	Z68	X69	Y69	Z69	X70	Y70	Z70	X71	Y71	Z71	X72	Y72	Z72	X73	Y73	Z73	X74	Y74	Z74	X75	Y75	Z75	X76	Y76	Z76	X77	Y77	Z77	X78	Y78	Z78	X79	Y79	Z79	X80	Y80	Z80	X81	Y81	Z81	X82	Y82	Z82	X83	Y83	Z83	X84	Y84	Z84	X85	Y85	Z85	

183	1.82	91.567008972168	949.8225708007817	-533.9652099609377	87.32926177978518	952.4128417968755	-662.7959594726565	-37.25725555419923	946.8405761718755	-529.7876586914065	88.67116546630862	1078.688598632813	-531.278991699219	29.87786674499513	528.1367797851565	-489.4823913574221	26.56282043457033	485.6611633300784	-909.6918945312505	-392.4642333984377	525.758483886719	-485.9101257324221	27.15245246887208	948.352661132813	-531.9371337890627	41.38965606689455	100.6793823242188	-370.7022094726564	48.58393096923831	-12.48282623291016	-778.6391601562505	-381.8097229003907	88.1724548339844	-374.6962280273439	30.4070510864258	508.4880676269534	-484.0225219726565	27.8498992919922	84.14886474609378	-525.1342773437502	23.24179840087891	301.8223266601564	-528.0476074218752	-189.8426208496094	79.53497314453128	-525.5369262695315	27.38563537597658	87.05299377441409	-307.412322998047	28.00464820861818	83.18082427978518	-597.7082519531252	26.46861457824708	155.7386474609376	-598.6793212890627	-44.5595169067383	81.64286041259768	-597.842468261719	27.8498935699463	84.14884948730472	-525.1342773437502	181.4579315185547	571.085144042969	-732.9372558593752	140.4908142089844	765.308044433594	-1113.190673828125	-244.7652740478517	529.6911621093752	-708.1604003906252	155.9815216064454	951.292358398438	-535.9932250976565	178.1945037841797	142.8822937011719	-627.2562255859377	233.1354064941407	42.45848083496095	-1032.4609375	-239.2574005126954	132.7162780761719	-681.3381958007815	181.3099517822266	551.6682739257815	-728.145202636719	221.9125823974611	108.8017044067383	-772.8080444335942	216.2748870849611	324.0451965332032	-803.7399291992192	8.451812744140629	97.42072296142584	-813.0983276367192	180.4270324707032	138.1110229492188	-561.293884277344	235.7410888671876	99.03190612792974	-843.3127441406255	233.8618774414064	170.7797393798829	-853.6233520507817	164.5874938964844	95.23825836181643	-856.7428588867192	221.912567138672	108.8016967773438	-772.8080444335942	-20.22580718994141	1045.283203125	-575.5403442382815	195.9008789062501	1050.286010742188	-582.5491333007815	149.5919952392579	1039.975463867188	-385.4851379394534	-78.41219329833987	737.9042968750002	-509.8318176269534	-28.11913871765138	527.8101806640627	-488.9918518066409	-32.46891021728517	293.3748779296876	-425.458679199219	-4.088468551635744	99.33535003662115	-371.1313781738282	33.78845596313478	61.6834411621094	-297.2757568359376	38.37377929687501	61.90251159667972	-523.594421386719	278.2036743164064	828.9573364257817	-611.6463623046877	238.0962829589845	576.5857543945315	-736.2297363281252	251.4143218994142	422.9637145996096	-686.742370605469	224.2956848144532	144.0049591064454	-621.283630371094	163.9792175292969	112.8435821533204	-557.2932128906252	214.1029510498048	88.53282165527347	-774.4208374023442	37.2808074951172	1047.78369140625	-385.8609313964846	-1.135736703872681	1.264840364456177	-6.930597305297855	1.045731067657471	1.354493379592896	9.767237663269047	0	0	14.75674533843995	0.4727369844913485	-0.4408834874629977	14.75719070434571	-3.079548120498659	3.228307723999025	26.08282279968263	6.59672832489014	-9.398837089538578	40.96750259399415	1.152064681053162	-3.493452548980715	5.956609249114992	0	0	5.945518016815187	-1.287030816078186	-1.884130477905274	-1.194161057472229	1.287030816078186	1.884130477905274	-1.194161057472229	1.212658166885376	0.1221603080630303	-89.23579406738284	-1.512874126434327	-10.9944486618042	-82.11079406738284	0	-0.6875166296958926	0	0	0.1088514402508736	0	0	-0.5750867724418642	0	0	-0.002166375750675798	0	0	-0.09569520503282553	0	0	-0.01984553970396519	0	0.1647284775972367	5.980380535125734	0.02527651563286783	1.679189324378968	60.96208572387698	-0.2576607167720796	0.2881954610347749	0.1032736375927926	5.83427667617798	-0.01304839923977853	-0.04355972632765771	-0.2983945310115815	-0.06982527673244479	0.7061479687690737	-0.2595959007740022	0.3323729932308198	-5.201347827911379	1.545766234397889	-0.1443013101816178	1.103461384773255	0.1964654028415681	0.2052406370639802	-4.676364898681642	0.7404175996780398	422.7499084472659	-39.59925842285158	-331.9899291992189	-50.52082443237308	57.8172416687012	590.5965576171877	5.63697250024185e-15	-1.383918046951294	-30.02842712402345	13.54155731201173	-1.786988258361817	-10.67087745666504	77.71936035156253	46.59521865844728	88.28629302978518	54.9147872924805	-10.06198787689209	8.988204956054691	172.9031677246094	34.70562744140626	-403.240173339844	
184	1.83	91.21082305908206	947.859252929688	-549.4062500000002	85.74886322021487	949.9502563476567	-678.1999511718752	-37.56139373779298	944.6196289062505	-543.9978027343752	88.0622482299805	1076.72802734375	-547.1804809570315	29.86976432800294	526.8850708007815	-495.3260192871096	23.42525863647462	475.4067382812502	-914.6577148437505	-392.5988769531252	524.6445312500002	-488.5582580566409	26.82164001464845	946.2600097656255	-546.7628173828127	41.66469573974611	100.8096160888672	-371.4571533203126	44.78602600097658	-17.32520294189454	-778.106323242188	-381.6469116210939	89.13273620605472	-371.3141479492189	30.41182327270509	507.302917480469	-489.6330871582034	27.83484077453615	83.91416931152347	-525.8240356445315	23.21821975708009	301.5802001953126	-529.2429199218752	-189.8579864501954	79.29725646972659	-525.8063964843752	27.7799587249756	87.33270263671878	-308.1090698242189	27.85315322875978	82.77466583251956	-598.3955688476565	26.31427574157716	155.3299865722657	-599.5352172851565	-44.7111167907715	81.23569488525393	-598.3897094726565	27.83485603332521	83.914176940918	-525.8239746093752	180.2254943847657	569.516052246094	-749.1882324218752	136.3650054931641	763.701599121094	-1128.91748046875	-245.5631103515626	527.539001464844	-721.4738769531252	155.5999603271485	949.458129882813	-552.0494384765627	176.1970520019532	135.7856445312501	-673.5119628906252	236.8612365722657	63.75348663330081	-1083.126953125	-239.685516357422	129.1067504882813	-733.929870605469	180.0425109863282	549.8145751953127	-745.7507934570315	220.564666748047	110.5099639892579	-820.653930664063	215.6972961425782	327.2562561035157	-838.422241210938	7.282058715820316	102.280128479004	-862.619750976563	178.077377319336	126.9925231933594	-607.9533691406252	234.7270965576173	105.0157775878907	-891.554077148438	233.1046295166017	177.2645263671876	-897.4768676757817	163.6329040527344	102.2724914550782	-905.5426635742192	220.5646820068361	110.5099563598633	-820.653930664063	-21.25559806823731	1042.92138671875	-590.2786865234377	194.942596435547	1048.360473632813	-599.3590087890627	150.5340423583985	1038.672607421875	-401.7588500976565	-78.26379394531253	736.333923339844	-519.376647949219	-28.12197875976564	526.5775146484377	-494.3969726562502	-32.42654418945314	293.1199340820314	-427.8935546875002	-3.818000078201296	99.55499267578131	-371.4418029785157	34.00386810302736	61.77936553955081	-297.4116210937501	38.37294387817384	61.80245590209964	-523.7406005859377	277.8707885742189	827.6520996093755	-628.4614257812502	236.8318481445314	575.0966796875002	-752.872741699219	250.0467224121095	418.922302246094	-712.3652954101565	222.2081604003907	136.5245513916016	-666.8276367187502	161.4843902587891	101.724594116211	-605.3336181640627	212.6317596435548	90.49403381347659	-823.2345581054692	38.2196731567383	1046.297973632813	-401.1481628417971	-1.308844923973084	1.337576150894165	-7.934996128082279	0.9745970368385319	1.219059586524964	9.231966018676761	0	0	15.30471897125245	0.3653140366077424	0.008967706933617595	15.30471897125245	-3.117746829986574	3.079506635665895	26.30672454833986	6.69826698303223	-11.00287628173828	36.98067092895509	1.035542607307435	-2.952182292938233	5.470417499542238	0	0	5.463139057159426	-1.399390459060669	-2.428774595260621	-0.9894823431968693	1.399390459060669	2.428774595260621	-0.9894823431968693	1.214877843856812	0.01445679552853108	-89.1004333496094	-1.307323336601258	-11.26336002349854	-85.56889343261722	0	-0.6913534402847292	0	0	0.08822046965360644	0	0	-0.664788603782654	0	0	-0.0005394742474891248	0	0	-0.1581915766000748	0	0	-0.02621973492205144	0	0.1859950423240662	6.183754920959476	-0.02727082371711732	1.895973920822144	63.03522109985354	0.2779900431632997	0.3133029341697694	0.06877908110618594	6.03719520568848	-0.01595385372638703	-0.05174522846937182	-0.3174118995666505	-0.07177085429430011	0.7785593867301945	-0.2647196054458619	0.3466159999370576	-5.386765003204347	1.623372077941895	-0.1500041335821152	1.205438017845154	0.2408718764781953	0.2156431078910829	-4.850616455078127	0.8373229503631596	456.7520446777346	-44.8596649169922	-342.5454101562501	-50.56863784790042	62.13913726806643	631.8732910156252	4.168517642882693e-15	-1.656914472579957	-32.56521224975587	18.38313865661622	-2.075241327285767	-18.65545082092286	86.65740966796878	50.49844360351565	79.60176086425784	55.52651214599612	-12.39287757873536	0.682875454425812	191.0581970214844	37.57641983032228	-436.0556945800784	
185	1.84	90.87237548828128	945.5172729492192	-564.9196777343752	84.22478485107425	947.0199584960942	-693.6658935546877	-37.83930969238283	942.0977172851567	-558.3137817382815	87.53459167480472	1074.3896484375	-563.2431640625002	29.82839775085451	525.4660644531252	-501.4716491699221	19.9858684539795	465.1980895996096	-919.7221679687505	-392.7290039062502	523.5872802734377	-491.2570495605471	26.51288986206056	943.8281250000005	-561.677673339844	41.95327377319337	100.9287643432618	-372.2214965820314	40.98550415039064	-22.4530258178711	-777.392944335938	-381.429656982422	90.1445236206055	-367.926239013672	30.3855381011963	505.9576721191409	-495.5322570800784	27.82037925720216	83.6733322143555	-526.5210571289065	23.21844482421876	301.3312072753907	-530.4406738281252	-189.8724517822266	79.07881927490237	-526.0676879882815	28.1908416748047	87.601676940918	-308.8150329589845	27.69688034057619	82.36392211914065	-599.0896606445315	26.16290664672853	154.9165649414063	-600.396179199219	-44.86738967895509	80.83242034912112	-598.9385375976565	27.82037162780763	83.67337036132815	-526.5209960937502	179.0105895996094	567.1047363281252	-764.9134521484377	133.9530944824219	760.8417968750002	-1144.63671875	-246.6164855957032	525.3601684570315	-735.7073974609377	155.231918334961	947.206420898438	-568.1617431640627	174.3821105957032	129.9719543457032	-719.923034667969	241.0853271484376	86.87429809570315	-1131.803100585938	-239.723114013672	127.4811401367188	-786.725952148438	178.7999420166016	547.2108154296877	-762.8659667968752	219.1208343505861	113.4577407836915	-868.1923828125005	215.154754638672	330.8997802734376	-872.8355102539067	5.942977905273439	108.6508865356446	-911.2089843750005	176.0186157226563	117.223747253418	-655.0109863281252	233.4882354736329	112.2024307250977	-939.2529296875005	232.1661529541017	184.6831054687501	-940.800659179688	162.428939819336	110.6000976562501	-953.5917358398442	219.1208648681642	113.457748413086	-868.1923828125005	-22.19070053100587	1040.214111328125	-605.1793212890627	194.0489501953126	1045.959106445313	-616.2774658203127	151.4817047119141	1037.08349609375	-418.182312011719	-78.19653320312503	734.5793457031252	-529.061706542969	-28.1540927886963	525.2082519531252	-500.0699157714846	-32.37723541259767	292.7947692871095	-430.4705200195315	-3.529637813568117	99.77023315429693	-371.7600708007814	34.26938629150392	61.86340713500979	-297.5459289550782	38.37293243408205	61.70312500000003	-523.8743286132815	277.5284423828126	825.457153320313	-644.790466308594	235.6065673828126	572.6555786132815	-768.7969360351567	248.7518920898439	414.6654357910159	-737.6682128906252	220.2877960205079	130.2480621337891	-712.517517089844	159.2573394775391	92.02942657470706	-653.6616821289065	211.0062866210939	93.77770996093753	-871.5383911132817	39.15875244140626	1044.545532226563	-416.5813293457034	-1.473783254623414	1.356852054595948	-8.872144699096683	0.9177613258361821	1.119726419448853	8.765542030334476	0	0	15.89575767517091	0.2582851052284242	0.4571678936481478	15.89628505706788	-3.174548387527468	2.730248451232911	26.47668838500978	6.563140869140629	-12.48616027832032	32.86697387695314	0.8867133259773259	-2.260066747665406	4.891105651855471	0	0	4.887273311614992	-1.483505606651307	-2.956545114517213	-0.7453421950340273	1.483505606651307	2.956545114517213	-0.7453421950340273	1.211037635803223	-0.09749129414558416	-88.96627044677737	-1.065857529640198	-11.42853927612305	-88.98794555664065	0	-0.6795424818992617	0	0	0.06635598838329318	0	0	-0.7708041071891789	0	0	-0.006325887050479654	0	0	-0.2803529202938081	0	0	-0.03170869871973993	0	0.2310155332088472	6.486334800720218	-0.09814827889204031	2.35489845275879	66.1196212768555	1.000492095947266	0.3636325001716615	0.01866373606026173	6.338975906372074	-0.01988570764660836	-0.06812150776386264	-0.3320284187793733	-0.07386247068643573	0.8443531990051274	-0.2775689661502839	0.3848618566989901	-5.666869163513185	1.7201247215271	-0.1533208042383195	1.316354751586915	0.2765450179576875	0.2454785555601121	-5.118148326873781	0.9328016042709355	498.3473205566409	-52.28093338012698	-359.9257812500001	-50.69529724121097	68.69370269775393	685.2100830078127	-3.718506825698376e-15	-1.544181108474732	-34.55347442626955	24.98750877380373	-1.95507049560547	-34.74609756469728	106.680763244629	56.64881134033206	67.86772918701175	55.02799987792972	-14.56976795196534	4.113624572753908	228.3024291992189	41.03511047363283	-466.3874511718752	
186	1.85	90.56936645507815	942.8228149414067	-580.5144653320315	82.77729797363284	943.663696289063	-709.2024536132815	-38.07458496093751	939.2946777343755	-572.7481079101565	87.09841918945315	1071.6982421875	-579.4622192382815	29.75166893005373	523.883728027344	-507.9392089843752	16.2217197418213	455.0527648925784	-924.9169921875005	-392.8543395996096	522.6238403320315	-494.0186767578127	26.24321365356447	941.0791015625005	-576.6922607421877	42.26735305786134	101.0559768676758	-373.000457763672	37.19397354125978	-27.8613967895508	-776.4895019531255	-381.1477966308595	91.22443389892581	-364.5352783203126	30.32670211791994	504.4570312500002	-501.7396240234377	27.80738830566408	83.42683410644534	-527.2274169921877	23.24482345581055	301.0755004882814	-531.669128417969	-189.8850097656251	78.88214111328128	-526.3067626953127	28.63495826721193	87.88682556152347	-309.5329589843751	27.53153800964357	81.94017028808597	-599.7922363281252	26.01069641113283	154.4897155761719	-601.2727661132815	-45.03258514404298	80.4252853393555	-599.4853515625002	27.80738258361818	83.42681121826175	-527.2273559570315	177.7829895019532	563.951110839844	-780.2095336914067	133.3350677490235	756.930358886719	-1160.395751953125	-247.9618225097657	523.342712402344	-751.047790527344	154.8955688476563	944.566528320313	-584.3366699218752	172.7709503173829	125.5209579467774	-766.2251586914065	245.925018310547	111.5431442260743	-1178.229248046875	-239.4425506591798	127.8961715698243	-839.496948242188	177.5544891357422	543.9625244140627	-779.5720214843755	217.5878753662111	117.738151550293	-915.184692382813	214.6356201171876	335.0824279785157	-906.7526245117192	4.435165405273439	116.5262298583985	-958.5759277343755	174.2802429199219	108.8868255615235	-702.1953735351565	232.0237121582032	120.688591003418	-986.1811523437505	231.0396423339845	193.136688232422	-983.370483398438	160.9728088378907	120.2846298217774	-1000.644836425782	217.5878753662111	117.738151550293	-915.184692382813	-23.01460838317872	1037.187133789063	-620.2445068359377	193.2295532226564	1043.11767578125	-633.2993774414065	152.4377746582032	1035.213012695313	-434.7565612792971	-78.21521759033206	732.6552734375002	-538.8980712890627	-28.21663284301759	523.710876464844	-506.0297546386721	-32.31119918823244	292.4089660644532	-433.2012023925784	-3.211305141448976	99.99997711181646	-372.0911865234376	34.59717178344728	61.95572280883792	-297.6838684082032	38.3747024536133	61.60314559936526	-524.0042724609377	277.2105102539064	822.3900756835942	-660.652282714844	234.3939971923829	569.350769042969	-784.0871582031255	247.5106811523439	410.311462402344	-762.6164550781252	218.5525512695314	125.2571640014649	-758.0872802734377	157.3187255859376	83.80649566650393	-701.9948730468752	209.2350006103517	98.44493865966803	-919.0824584960942	40.09897613525392	1042.536254882813	-432.1633911132815	-1.634037017822267	1.319666266441346	-9.747349739074711	0.8783507347106938	1.059088826179505	8.371914863586429	0	0	16.52550888061524	0.1525601446628571	0.8998509645462041	16.52760887145997	-3.239063501358034	2.164924144744874	26.60159873962404	6.211139678955082	-13.81068992614747	28.67415618896486	0.7019154429435732	-1.39976441860199	4.253953456878664	0	0	4.252676486968996	-1.5426824092865	-3.466222763061525	-0.46780002117157	1.5426824092865	3.466222763061525	-0.46780002117157	1.200668215751648	-0.2177585661411287	-88.82632446289065	-0.7935248613357548	-11.48373508453369	-92.37970733642581	0	-0.6591595411300661	0	0	0.04257281869649888	0	0	-0.8901711702346806	0	0	-0.01721009239554406	0	0	-0.4870057404041293	0	0	-0.03493658080697061	0	0.2847633361816407	6.846350193023685	-0.1856405436992646	2.902786254882813	69.78950500488284	1.892360329627992	0.4233545660972597	-0.04473505914211275	6.69829082489014	-0.02456117980182172	-0.09520865231752401	-0.3396932184696199	-0.07748896628618243	0.8984771370887761	-0.3018356561660768	0.4315254986286166	-6.000684261322025	1.829444885253907	-0.1530548483133317	1.429305672645569	0.2995256781578065	0.2811819016933442	-5.436436176300051	1.026838898658753	546.9273071289065	-63.57558059692386	-381.421600341797	-51.62452697753909	78.67185211181643	748.352966308594	-3.558634862618284e-15	-1.097429990768433	-35.42139816284181	33.9891929626465	-1.462901711463929	-62.20975112915042	129.9595184326172	65.9895935058594	52.56705856323245	52.65222549438479	-16.49247932434083	24.60731697082521	270.663299560547	47.33509445190431	-493.4433593750002	
